<svg width="32" height="31" viewBox="0 0 32 31" fill="none" xmlns="http://www.w3.org/2000/svg">
<path d="M9.59332 14.8542L9.59332 7.91363C9.59332 4.37533 12.4617 1.50697 16 1.50697V1.50697C19.5383 1.50697 22.4067 4.37533 22.4067 7.91363L22.4067 14.8542" stroke="black" stroke-linecap="round"/>
<path d="M2.89221 13.53C3.03194 11.7833 3.10181 10.9099 3.67642 10.3794C4.25104 9.84894 5.12718 9.84894 6.87947 9.84894H25.1206C26.8729 9.84894 27.749 9.84894 28.3236 10.3794C28.8982 10.9099 28.9681 11.7833 29.1078 13.53L30.2423 27.7103C30.3231 28.721 30.3636 29.2264 30.0666 29.5481C29.7696 29.8698 29.2626 29.8698 28.2486 29.8698H3.75141C2.73742 29.8698 2.23042 29.8698 1.93346 29.5481C1.63649 29.2264 1.67692 28.721 1.75778 27.7103L2.89221 13.53Z" stroke="black"/>
</svg>
