<svg width="40" height="40" viewBox="0 0 40 40" fill="none" xmlns="http://www.w3.org/2000/svg">
<path d="M7.77753 10.6846V5.40431C7.77753 3.28868 7.77753 2.23086 8.45539 1.63364C9.13325 1.03641 10.1826 1.16967 12.2814 1.43618L32.6723 4.02549C35.1697 4.34262 36.4184 4.50119 37.1674 5.35135C37.9164 6.2015 37.9164 7.46023 37.9164 9.9777V30.0224C37.9164 32.5399 37.9164 33.7986 37.1674 34.6488C36.4184 35.4989 35.1697 35.6575 32.6723 35.9746L12.2814 38.5639C10.1826 38.8305 9.13325 38.9637 8.45539 38.3665C7.77753 37.7693 7.77753 36.7114 7.77753 34.5958V29.6942" stroke="#001C17"/>
<path d="M27.7778 20L28.1494 19.6655L28.4505 20L28.1494 20.3345L27.7778 20ZM1.94444 20.5C1.66829 20.5 1.44444 20.2762 1.44444 20C1.44444 19.7239 1.66829 19.5 1.94444 19.5V20.5ZM19.5383 10.0976L28.1494 19.6655L27.4061 20.3345L18.795 10.7666L19.5383 10.0976ZM28.1494 20.3345L19.5383 29.9024L18.795 29.2334L27.4061 19.6655L28.1494 20.3345ZM27.7778 20.5H1.94444V19.5H27.7778V20.5Z" fill="#001C17"/>
</svg>
