<svg width="40" height="40" viewBox="0 0 40 40" fill="none" xmlns="http://www.w3.org/2000/svg">
<path d="M5.96895 24.2869L19.2986 37.4049C19.6297 37.7308 19.7952 37.8937 20 37.8937C20.2048 37.8937 20.3703 37.7308 20.7014 37.4049L34.0311 24.2869L34.0313 24.2867C34.4024 23.9214 34.5881 23.7387 34.7422 23.5709C37.5438 20.5195 37.9008 15.9499 35.6071 12.5005C35.4809 12.3107 35.3259 12.1014 35.0158 11.6827L34.2276 10.6184C30.697 5.85113 23.3451 6.62582 20.8856 12.0243C20.5396 12.7839 19.4604 12.7839 19.1144 12.0243C16.6549 6.62582 9.30305 5.85112 5.77245 10.6184L4.98418 11.6827C4.67412 12.1014 4.51909 12.3107 4.39289 12.5005C2.09916 15.9499 2.45618 20.5195 5.25782 23.5709C5.41196 23.7388 5.59762 23.9215 5.96895 24.2869Z" stroke="#001C17"/>
</svg>
